<svg width="72" height="72" viewBox="0 0 72 72" fill="none" xmlns="http://www.w3.org/2000/svg">
<path d="M68.9021 32C68.1705 25.6297 65.5689 19.6177 61.4243 14.72C61.7622 14.1354 61.9459 13.4748 61.9585 12.8C61.9599 12.2953 61.8614 11.7953 61.6686 11.3288C61.4758 10.8623 61.1926 10.4384 60.8352 10.0816C60.4778 9.7247 60.0533 9.4419 59.5861 9.2494C59.1189 9.0569 58.6182 8.95859 58.1128 8.95999C57.3839 8.94289 56.6699 9.168 56.0831 9.6C51.1344 5.79544 45.2091 3.4658 38.9911 2.88C38.7919 2.06541 38.3268 1.34021 37.6692 0.81874C37.0115 0.29728 36.1988 0.00923 35.359 0C34.491 0.00809 33.6507 0.3068 32.9728 0.84831C32.2949 1.38981 31.8186 2.14279 31.6202 2.98666C25.626 3.78283 19.9693 6.21936 15.276 10.0267C14.6956 9.6438 14.0224 9.4248 13.3276 9.3928C12.6327 9.3609 11.9422 9.5172 11.3291 9.8451C10.7159 10.1731 10.2031 10.6606 9.8448 11.2559C9.4865 11.8512 9.2961 12.5321 9.2938 13.2267C9.2768 14.0207 9.5002 14.8014 9.9347 15.4667C6.16926 20.2516 3.77001 25.9644 2.9911 32C2.14829 32.1635 1.38878 32.6149 0.842982 33.2767C0.297182 33.9385 -0.000872083 34.7693 1.9167e-06 35.6266C0.00810192 36.4934 0.307262 37.3324 0.849572 38.0093C1.39188 38.6862 2.14597 39.1618 2.9911 39.36C3.59536 45.4997 5.92873 51.3429 9.7211 56.2133C9.3376 56.7928 9.1183 57.465 9.0863 58.1588C9.0543 58.8526 9.2108 59.5421 9.5393 60.1543C9.8677 60.7666 10.3559 61.2787 10.9521 61.6364C11.5483 61.9942 12.2303 62.1843 12.9258 62.1866C13.6524 62.1879 14.3614 61.9643 14.9555 61.5466C19.732 65.5414 25.5497 68.0945 31.727 68.9066C31.8875 69.7784 32.35 70.5661 33.0336 71.1316C33.7171 71.6971 34.5782 72.0045 35.4659 71.9999C36.334 71.9919 37.1742 71.6931 37.8521 71.1516C38.53 70.6101 39.0063 69.8572 39.2047 69.0133C45.4654 68.3933 51.4252 66.0277 56.4036 62.1866C56.9976 62.6043 57.7067 62.8279 58.4332 62.8266C58.9387 62.828 59.4394 62.7297 59.9066 62.5372C60.3738 62.3447 60.7983 62.0619 61.1557 61.705C61.5131 61.3482 61.7963 60.9243 61.9891 60.4578C62.1818 59.9913 62.2803 59.4913 62.2789 58.9866C62.2811 58.3098 62.0963 57.6454 61.7448 57.0666C65.9272 51.9965 68.4944 45.7926 69.1157 39.2533C69.9383 39.0301 70.6654 38.5445 71.1861 37.8705C71.7067 37.1966 71.9926 36.3711 72 35.52C71.9231 34.6814 71.5818 33.8888 71.0251 33.2563C70.4684 32.6237 69.7251 32.1839 68.9021 32ZM58.6469 16.5333C59.4066 16.5348 60.1499 16.3121 60.7834 15.8933C64.4981 20.5053 66.8971 26.0331 67.727 31.8933C67.2083 31.9943 66.7186 32.2095 66.2936 32.5232C65.8686 32.8368 65.5189 33.2411 65.27 33.7066L55.549 30.08C55.607 29.4205 55.4893 28.7574 55.2079 28.158C54.9265 27.5585 54.4913 27.044 53.9466 26.6666L58.2196 16.64C58.3264 16.5333 58.4332 16.5333 58.6469 16.5333ZM56.0831 16L51.8101 26.0266C51.5964 26.0266 51.3828 25.92 51.1691 25.92C50.4037 25.9321 49.6594 26.1721 49.0314 26.6092C48.4033 27.0462 47.9202 27.6605 47.6439 28.3733L30.1246 24.32C30.1418 24.0664 30.1054 23.812 30.0178 23.5733L54.908 14.8267C55.2725 15.244 55.6651 15.636 56.0831 16ZM35.4659 7.46666C36.3481 7.45114 37.1988 7.13647 37.8783 6.57433C38.5577 6.0122 39.0255 5.23603 39.2047 4.37333C44.9525 4.91035 50.4321 7.05459 55.0148 10.56C54.576 11.2712 54.388 12.1085 54.4807 12.9387V13.0133L29.4837 21.76C29.27 21.5467 29.0564 21.2267 28.8427 21.12L35.359 7.46666H35.4659ZM31.6202 4.69333C31.7276 5.2234 31.9573 5.72115 32.2911 6.14704C32.6249 6.57292 33.0535 6.9152 33.543 7.14666L27.1335 20.5867C26.8945 20.4992 26.6397 20.4628 26.3858 20.48C25.6216 20.4463 24.8686 20.6718 24.2493 21.12L16.6647 14.72C16.8736 14.2122 16.9824 13.6689 16.9852 13.12C16.9586 12.4473 16.7758 11.79 16.451 11.2C20.8714 7.77906 26.0922 5.53967 31.6202 4.69333ZM7.47775 34.88L23.181 26.6666C23.5214 27.1386 23.9714 27.5211 24.4924 27.7812C25.0133 28.0413 25.5897 28.1713 26.1721 28.16L31.6202 45.5466C31.257 45.7875 30.9625 46.1182 30.7656 46.5066L7.37092 36.6933C7.46478 36.346 7.50086 35.9856 7.47775 35.6266V34.88ZM11.3234 16.5333C11.8703 16.8697 12.4973 17.0538 13.1395 17.0667C13.9979 17.0609 14.828 16.7594 15.4896 16.2133L23.0742 22.5067C22.7227 23.0854 22.5379 23.7498 22.5401 24.4266C22.5229 24.6803 22.5593 24.9347 22.6469 25.1733L6.8368 33.3866C6.32116 32.747 5.60714 32.2967 4.80712 32.1066C5.48822 26.4119 7.74468 21.0192 11.3234 16.5333ZM12.4985 54.6133C11.8248 54.6398 11.1665 54.8224 10.5757 55.1466C7.06507 50.5707 4.91764 45.0992 4.37982 39.36C5.12196 39.1652 5.79053 38.7572 6.30267 38.1866L29.911 48.1066C29.8548 48.6644 29.9167 49.2276 30.0926 49.76L15.8101 56.7466C15.5325 56.103 15.0693 55.5565 14.4796 55.1766C13.8898 54.7967 13.2002 54.6006 12.4985 54.6133ZM31.727 67.3066C26.0101 66.4654 20.624 64.1079 16.1306 60.48C16.4821 59.8623 16.6662 59.1637 16.6647 58.4533L31.5134 51.3066C31.9356 51.6523 32.4028 51.9393 32.9021 52.16L33.7567 64.96C33.2469 65.1473 32.7932 65.4609 32.4382 65.8714C32.0831 66.2819 31.8384 66.7758 31.727 67.3066ZM33.3294 44.8L27.9881 27.84C28.7431 27.4062 29.3697 26.7805 29.8042 26.0266L47.5371 30.08C47.6189 30.6899 47.8381 31.2734 48.178 31.7866L36 45.2266C35.4531 44.8903 34.8261 44.7061 34.184 44.6933C33.8635 44.6933 33.543 44.8 33.3294 44.8ZM39.0979 67.5199C38.8995 66.6761 38.4232 65.9231 37.7453 65.3816C37.0674 64.8401 36.2271 64.5414 35.359 64.5333L34.5044 52.3733C35.402 52.2716 36.2346 51.8559 36.8546 51.2L54.4807 59.0933V59.2C54.4933 59.9085 54.6765 60.6036 55.0148 61.2266C50.3861 64.7396 44.8804 66.9165 39.0979 67.5199ZM54.908 56.96L37.7092 49.28C37.8318 48.9 37.9037 48.5054 37.9228 48.1066C37.9398 47.3126 37.7164 46.5319 37.2819 45.8666L49.3531 32.5333C50.0489 32.9421 50.8575 33.1177 51.6605 33.0346L56.1472 55.4346C55.6517 55.8704 55.2328 56.3859 54.908 56.96ZM60.2493 56.1066C59.5012 55.5888 58.5896 55.3612 57.6855 55.4666L53.1988 33.0666C53.6951 32.749 54.1001 32.3079 54.3739 31.7866L64.095 35.4133C64.0131 36.3528 64.2853 37.289 64.8583 38.0386C65.4313 38.7883 66.2638 39.2975 67.1929 39.4666C66.5314 45.5652 64.1203 51.3434 60.2493 56.1066Z" fill="#0E5AF2"/>
</svg>
