<?xml version="1.0" encoding="utf-8"?>
<!-- Generator: Adobe Illustrator 22.1.0, SVG Export Plug-In . SVG Version: 6.00 Build 0)  -->
<svg version="1.1" id="Layer_1" xmlns="http://www.w3.org/2000/svg" xmlns:xlink="http://www.w3.org/1999/xlink" x="0px" y="0px"
	 viewBox="0 0 207.9 36" style="enable-background:new 0 0 207.9 36;" xml:space="preserve">
<style type="text/css">
	.st0{fill:#FF6600;}
	.st1{fill:#4D148C;}
</style>
<g>
	<path class="st0" d="M81.6,9.4c0.2,0,0.4,0.2,0.4,0.4v2.8c0,0.2-0.2,0.4-0.4,0.4h-3.2c-0.4,0-0.8-0.1-0.8-0.1v11.1
		c0,0.2-0.2,0.4-0.4,0.4h-3.5c-0.2,0-0.4-0.2-0.4-0.4V13.1c0,0-0.3,0.1-0.6,0.1h-3.4c-0.2,0-0.4-0.2-0.4-0.4V9.9
		c0-0.2,0.2-0.4,0.4-0.4H81.6L81.6,9.4z M10.3,9.5c-0.2,0-0.4,0.2-0.4,0.4v2.8c0,0.2,0.2,0.4,0.4,0.4h3.4c0.3,0,0.6-0.1,0.6-0.1
		v11.1c0,0.2,0.2,0.4,0.4,0.4h3.5c0.2,0,0.4-0.2,0.4-0.4V13.1c0,0,0.4,0.1,0.8,0.1h3.2c0.2,0,0.4-0.2,0.4-0.4V9.9
		c0-0.2-0.2-0.4-0.4-0.4L10.3,9.5L10.3,9.5z M75.4,0C69,0,63.4,3.7,60.6,9c-2.8-5.3-8.3-9-14.7-9S34,3.7,31.2,9
		c-2.8-5.3-8.3-9-14.7-9C7.4,0-0.1,7.5-0.1,16.7c0,9.2,7.4,16.7,16.6,16.7c6.4,0,11.9-3.7,14.7-9c2.8,5.3,8.3,9,14.7,9
		s11.9-3.7,14.7-9c2.8,5.3,8.3,9,14.7,9c9.1,0,16.6-7.5,16.6-16.7C91.9,7.5,84.5,0,75.4,0 M16.5,29.6c-7.1,0-12.8-5.8-12.8-12.9
		c0-7.1,5.8-12.9,12.8-12.9c7.1,0,12.8,5.8,12.8,12.9C29.3,23.8,23.6,29.6,16.5,29.6 M45.9,29.6c-7.1,0-12.8-5.8-12.8-12.9
		c0-7.1,5.8-12.9,12.8-12.9c7.1,0,12.8,5.8,12.8,12.9C58.8,23.8,53,29.6,45.9,29.6 M75.4,29.6c-7.1,0-12.8-5.8-12.8-12.9
		c0-7.1,5.8-12.9,12.8-12.9c7.1,0,12.8,5.8,12.8,12.9C88.2,23.8,82.4,29.6,75.4,29.6 M52.3,9.2c0.3,0,0.5,0.2,0.5,0.4v14.1
		c0,0.2-0.2,0.4-0.4,0.4h-2.9c-0.2,0-0.4-0.1-0.5-0.2c0,0-5.3-7.2-5.4-7.4c-0.2-0.2-0.4-0.7-0.4-0.7v7.8c0,0.2-0.2,0.4-0.4,0.4h-3.3
		c-0.2,0-0.4-0.2-0.4-0.4V9.6c0-0.2,0.2-0.4,0.4-0.4h2.9c0.2,0,0.4,0.1,0.5,0.2c0,0,5.2,7,5.4,7.4c0.2,0.2,0.4,0.7,0.4,0.7V9.6
		c0-0.2,0.2-0.4,0.4-0.4C49.1,9.2,52.1,9.2,52.3,9.2"/>
	<path class="st1" d="M99.6,3h1.1l1.8,5.5c0.1,0.4,0.2,0.8,0.2,0.8h0c0,0,0.1-0.4,0.2-0.8l1.8-5.5h1l1.8,5.5
		c0.1,0.4,0.2,0.8,0.2,0.8h0c0,0,0.1-0.4,0.2-0.8l1.8-5.5h1.1l-2.5,7.4h-1.1l-1.8-5.3c-0.1-0.4-0.2-0.8-0.2-0.8h0
		c0,0-0.1,0.4-0.2,0.8l-1.8,5.3h-1.1L99.6,3z"/>
	<path class="st1" d="M112.3,0h1v1.3h-1V0z M112.3,3h1v7.4h-1V3z"/>
	<path class="st1" d="M115.7,0h1v8.4c0,1,0.4,1.1,0.8,1.1c0.1,0,0.3,0,0.3,0v0.9c0,0-0.2,0-0.4,0c-0.6,0-1.7-0.2-1.7-1.8V0z"/>
	<path class="st1" d="M119.3,0h1v8.4c0,1,0.4,1.1,0.8,1.1c0.1,0,0.3,0,0.3,0v0.9c0,0-0.2,0-0.4,0c-0.6,0-1.7-0.2-1.7-1.8L119.3,0
		L119.3,0z"/>
	<path class="st1" d="M127,0h1v3.6c0,0.3,0,0.6,0,0.6h0c0,0,0.6-1.4,2.5-1.4c2,0,3.2,1.6,3.2,3.9c0,2.3-1.4,3.9-3.4,3.9
		c-1.8,0-2.4-1.4-2.4-1.4h0c0,0,0,0.3,0,0.6v0.7h-1L127,0L127,0z M130.4,9.7c1.3,0,2.4-1.1,2.4-3c0-1.8-1-3-2.3-3
		c-1.2,0-2.4,0.9-2.4,3C128,8.2,128.8,9.7,130.4,9.7"/>
	<path class="st1" d="M138.9,2.8c2.1,0,3.1,1.6,3.1,3.4c0,0.2,0,0.5,0,0.5h-5.7c0,1.9,1.3,2.9,2.9,2.9c1.4,0,2.3-0.9,2.3-0.9
		l0.5,0.8c0,0-1.1,1-2.7,1c-2.2,0-3.9-1.6-3.9-3.9C135.2,4.2,136.9,2.8,138.9,2.8 M141,5.9c-0.1-1.6-1-2.3-2.1-2.3
		c-1.2,0-2.3,0.8-2.6,2.3H141z"/>
	<path class="st1" d="M147.3,2.8c1.8,0,2.7,1.1,2.7,1.1l-0.5,0.8c0,0-0.8-0.9-2.2-0.9c-1.6,0-2.9,1.2-2.9,3c0,1.7,1.3,3,2.9,3
		c1.5,0,2.4-1,2.4-1l0.5,0.8c0,0-1,1.2-2.9,1.2c-2.2,0-3.9-1.6-3.9-3.9C143.4,4.4,145.1,2.8,147.3,2.8"/>
	<path class="st1" d="M155.4,2.8c2.2,0,3.9,1.7,3.9,3.9c0,2.2-1.8,3.9-3.9,3.9s-3.9-1.7-3.9-3.9C151.5,4.4,153.2,2.8,155.4,2.8
		 M155.4,9.7c1.6,0,2.9-1.3,2.9-3c0-1.7-1.3-2.9-2.9-2.9c-1.6,0-2.9,1.3-2.9,2.9C152.5,8.4,153.8,9.7,155.4,9.7"/>
	<path class="st1" d="M161.2,3h1v1.1c0,0.3,0,0.6,0,0.6h0c0.4-1,1.5-1.9,2.7-1.9c1.4,0,2.1,0.6,2.3,1.9h0c0.4-1,1.5-1.9,2.7-1.9
		c1.8,0,2.5,1,2.5,2.9v4.7h-1V5.9c0-1.2-0.3-2.2-1.6-2.2c-1.1,0-2.1,1-2.3,2.1c-0.1,0.3-0.1,0.7-0.1,1.1v3.5h-1V5.9
		c0-1.1-0.2-2.2-1.6-2.2c-1.2,0-2.1,1-2.4,2.2c-0.1,0.3-0.1,0.6-0.1,1v3.5h-1L161.2,3L161.2,3z"/>
	<path class="st1" d="M177.8,2.8c2.1,0,3.1,1.6,3.1,3.4c0,0.2,0,0.5,0,0.5h-5.7c0,1.9,1.3,2.9,2.9,2.9c1.4,0,2.3-0.9,2.3-0.9
		l0.5,0.8c0,0-1.1,1-2.7,1c-2.2,0-3.9-1.6-3.9-3.9C174.2,4.2,175.8,2.8,177.8,2.8 M179.9,5.9c-0.1-1.6-1-2.3-2.1-2.3
		c-1.2,0-2.3,0.8-2.6,2.3H179.9z"/>
	<path class="st1" d="M207.5,31.7c0-0.9-0.7-1.6-1.6-1.6c-0.9,0-1.6,0.7-1.6,1.6c0,0.9,0.7,1.6,1.6,1.6
		C206.9,33.3,207.5,32.7,207.5,31.7L207.5,31.7L207.5,31.7L207.5,31.7z M205.5,31.8v1.1h-0.3v-2.3h0.8c0.5,0,0.7,0.2,0.7,0.6
		c0,0.3-0.2,0.5-0.4,0.5v0c0.2,0,0.3,0.2,0.3,0.5c0,0.2,0.1,0.6,0.1,0.7h-0.4c-0.1-0.2-0.1-0.5-0.2-0.8c-0.1-0.2-0.2-0.3-0.4-0.3
		L205.5,31.8L205.5,31.8L205.5,31.8z M206,31.5c0.3,0,0.4-0.2,0.4-0.3c0-0.2-0.1-0.3-0.4-0.3h-0.4v0.7L206,31.5L206,31.5L206,31.5z
		 M204,31.7c0-1.2,0.9-1.9,1.9-1.9c1,0,1.9,0.8,1.9,1.9c0,1.2-0.9,1.9-1.9,1.9C204.9,33.6,204,32.9,204,31.7L204,31.7L204,31.7z"/>
	<polygon class="st0" points="150.7,33.3 148.4,30.8 146.2,33.3 141.5,33.3 146.1,28.2 141.5,23 146.4,23 148.6,25.5 150.8,23 
		155.5,23 150.9,28.1 155.5,33.3 	"/>
	<polygon class="st0" points="132.5,33.3 132.5,17.1 141.5,17.1 141.5,20.7 136.3,20.7 136.3,23 141.5,23 141.5,26.5 136.3,26.5 
		136.3,29.7 141.5,29.7 141.5,33.3 	"/>
	<path class="st1" d="M128.7,17.1v6.6h0c-0.8-1-1.9-1.3-3.1-1.3c-2.5,0-4.4,1.7-5,3.9c-0.8-2.5-2.7-4-5.6-4c-2.3,0-4.2,1-5.1,2.8V23
		H105v-2.3h5.3v-3.6h-9.6v16.2h4.3v-6.8h4.3c-0.1,0.5-0.2,1-0.2,1.6c0,3.4,2.6,5.8,5.9,5.8c2.8,0,4.6-1.3,5.6-3.7h-3.7
		c-0.5,0.7-0.9,0.9-1.9,0.9c-1.2,0-2.2-1-2.2-2.2h7.5c0.3,2.7,2.4,5,5.3,5c1.2,0,2.4-0.6,3.1-1.6h0v1h3.8V17.1H128.7L128.7,17.1z
		 M113,26.5c0.2-1,1-1.7,2-1.7c1.1,0,1.9,0.7,2.1,1.7C117.1,26.5,113,26.5,113,26.5L113,26.5z M126.4,30.8c-1.4,0-2.3-1.3-2.3-2.7
		c0-1.5,0.8-2.9,2.3-2.9c1.6,0,2.2,1.4,2.2,2.9C128.6,29.6,128,30.8,126.4,30.8L126.4,30.8z"/>
	<polygon class="st1" points="158.3,33.3 158.3,23 164,23 164,23.8 159.2,23.8 159.2,27.6 163.8,27.6 163.8,28.3 159.2,28.3 
		159.2,32.5 164.2,32.5 164.2,33.3 	"/>
	<polygon class="st1" points="164.9,33.3 167.6,29.6 165,26.1 166.1,26.1 168.2,29 170.3,26.1 171.4,26.1 168.7,29.6 171.5,33.3 
		170.4,33.3 168.1,30.2 165.9,33.3 	"/>
	<path class="st1" d="M173.3,36h-0.9v-7.7c0-0.7,0-1.4,0-2.1h0.9l0,1.1c0.5-0.9,1.2-1.3,2.3-1.3c2.2,0,3.2,1.8,3.2,3.8
		c0,1.9-1,3.8-3.2,3.8c-1,0-1.8-0.4-2.3-1.2L173.3,36L173.3,36z M177.8,29.7c0-1.5-0.6-3-2.3-3c-1.6,0-2.2,1.3-2.2,3
		c0,1.7,0.6,3,2.2,3C177.2,32.7,177.8,31.2,177.8,29.7L177.8,29.7z"/>
	<path class="st1" d="M183.2,26.8c-1.4,0-1.9,1.2-1.9,2.5v4.1h-0.9v-5.1c0-0.7,0-1.4,0-2.1h0.9l0.1,1c0.4-0.8,1.1-1.2,2.1-1.2
		c0.1,0,0.3,0,0.4,0v0.9C183.6,26.8,183.4,26.8,183.2,26.8L183.2,26.8z"/>
	<path class="st1" d="M184.8,29.9c0,1.6,0.8,3,2.3,3c1.2,0,1.8-0.8,2-1.6h0.8c-0.4,1.5-1.3,2.3-2.9,2.3c-2.2,0-3.2-1.6-3.2-3.6
		c0-2.1,1-3.9,3.3-3.9c2.3,0,2.9,2,2.9,3.9L184.8,29.9L184.8,29.9z M184.9,29.2h4.3c0-1.4-0.7-2.6-2-2.6
		C185.9,26.6,185,27.5,184.9,29.2L184.9,29.2z"/>
	<path class="st1" d="M193.5,33.5c-1.5,0-2.6-0.7-2.6-2.3h0.9c0,1.1,0.7,1.6,1.8,1.6c1,0,1.7-0.5,1.7-1.4c0-0.9-0.9-1.1-1.8-1.4
		c-1.1-0.3-2.4-0.7-2.4-2.1c0-1.5,1.3-2,2.5-2c1.4,0,2.4,0.5,2.5,2h-0.9c0-0.9-0.7-1.3-1.6-1.3c-0.7,0-1.6,0.3-1.6,1.2
		c0,0.9,0.9,1.1,1.8,1.3c1.1,0.3,2.4,0.7,2.4,2C196.2,32.9,194.9,33.5,193.5,33.5L193.5,33.5z"/>
	<path class="st1" d="M199.5,33.5c-1.5,0-2.6-0.7-2.6-2.3h0.9c0,1.1,0.7,1.6,1.8,1.6c1,0,1.7-0.5,1.7-1.4c0-0.9-0.9-1.1-1.8-1.4
		c-1.1-0.3-2.4-0.7-2.4-2.1c0-1.5,1.3-2,2.5-2c1.4,0,2.4,0.5,2.5,2h-0.9c0-0.9-0.7-1.3-1.6-1.3c-0.7,0-1.6,0.3-1.6,1.2
		c0,0.9,0.9,1.1,1.8,1.3c1.1,0.3,2.4,0.7,2.4,2C202.2,32.9,200.9,33.5,199.5,33.5L199.5,33.5z"/>
</g>
</svg>
